<?xml version="1.0" standalone="no"?><!DOCTYPE svg PUBLIC "-//W3C//DTD SVG 1.1//EN" "http://www.w3.org/Graphics/SVG/1.1/DTD/svg11.dtd"><svg t="1611715044535" class="icon" viewBox="0 0 1063 1024" version="1.1" xmlns="http://www.w3.org/2000/svg" p-id="1319" width="16.609375" height="16" xmlns:xlink="http://www.w3.org/1999/xlink"><defs><style type="text/css"></style></defs><path d="M460.8 0c247.424 0 448 200.576 448 448 0 112.768-41.6768 215.8208-110.464 294.5792a63.744 63.744 0 0 1 39.616 17.664l2.176 2.2144 108.8 115.2a64 64 0 0 1-90.88 90.0864l-2.176-2.2016-108.8-115.2A63.7824 63.7824 0 0 1 729.6 806.4128 445.9008 445.9008 0 0 1 460.8 896c-163.008 0-310.6944-87.8336-389.76-226.9696a38.4 38.4 0 1 1 66.7776-37.9392C203.3536 746.4448 325.696 819.2 460.8 819.2c205.0048 0 371.2-166.1952 371.2-371.2S665.8048 76.8 460.8 76.8c-166.6816 0-311.6032 110.8352-356.864 268.6592a38.4 38.4 0 0 1-73.8304-21.1712C84.7616 133.76 259.6352 0 460.8 0z" fill="#303133" p-id="1320"></path><path d="M491.136 269.5168c13.9264-25.344 49.5104-26.624 65.3952-3.1616l1.344 2.1376 114.7008 194.5088 37.056-60.6208a38.4 38.4 0 0 1 50.7648-13.9008l2.0224 1.152a38.4 38.4 0 0 1 13.9008 50.7648l-1.152 2.0224-70.4 115.2c-14.6688 24-49.024 24.448-64.4864 1.6256l-1.3568-2.1376-112.9472-191.5008-146.7136 267.264c-14.272 26.0096-51.072 26.5088-66.304 1.792l-1.2416-2.1888-79.8848-149.7728-53.248 45.6576a38.4 38.4 0 0 1-22.2464 9.1392L153.6 537.6H44.8a38.4 38.4 0 0 1-2.2528-76.736L44.8 460.8h94.5792l78.8352-67.5584a38.4 38.4 0 0 1 57.6512 8.9728l1.216 2.112 69.0048 129.3824 145.0496-264.192z" fill="#FF6F26" p-id="1321"></path></svg>